# xmcd CD database file
#
# Track frame offsets:
#	150
#	16242
#	28190
#	39177
#	49598
#	59572
#	69336
#	81893
#	95570
#	108208
#	130554
#	145948
#	161680
#	175983
#	189338
#	203586
#	220039
#	234499
#	251751
#	269238
#	281803
#
# Disc length: 3956 seconds
#
# Revision: 0
# Processed by: cddbd v1.4PL0 Copyright (c) Steve Scherf et al.
# Submitted via: CDex 1.50beta9
#
DISCID=2b0f7215
DTITLE=Country Club - Best Of Nashville and New Country CD2/2
DYEAR=2002
DGENRE=Country
TTITLE0=Waylon Jennings/America
TTITLE1=Lefty Frizell/Cigarettes and Coffee Blues
TTITLE2=Leroy Van Dyke/Walk On By
TTITLE3=Billy Walker/Charlie's Shoes
TTITLE4=Hank Locklin/Geisha Girl
TTITLE5=Johnny Horton/Honky Tonk Man
TTITLE6=Johnny Cash/Ring Of Fire
TTITLE7=Alabama/High Cotton
TTITLE8=Rhonda Vincent/Is The Grass Any Bluer
TTITLE9=The O'kanes/Oh Darlin' /Why Don't Yoy Care
TTITLE10=Reba Mcentire/Sweet Music Man
TTITLE11=Highway 101/The Beat You Made For Me
TTITLE12=Randy Travis/On The Other Hand
TTITLE13=Lorrie Morgan/Except For Monday
TTITLE14=Jim Lauderdale/She Used To Say That To Me
TTITLE15=Sherrie Austin/Goin', Goin', Gone
TTITLE16=Radney Foster/Just Call Me Lonesome
TTITLE17=K.T. Oslin/Come Next Monday
TTITLE18=Prairie Oyster/Long Gone Daddy
TTITLE19=Mindy McCready/All I Want Is Everything
TTITLE20=Lee Roy Parnell/We All Get Lucky Sometimes
EXTD=YEAR: 2002
EXTT0=
EXTT1=
EXTT2=
EXTT3=
EXTT4=
EXTT5=
EXTT6=
EXTT7=
EXTT8=
EXTT9=
EXTT10=
EXTT11=
EXTT12=
EXTT13=
EXTT14=
EXTT15=
EXTT16=
EXTT17=
EXTT18=
EXTT19=
EXTT20=
PLAYORDER=
